<mxfile host="app.diagrams.net" modified="2024-03-27T17:18:48.227Z" agent="Mozilla/5.0 (Windows NT 10.0; Win64; x64) AppleWebKit/537.36 (KHTML, like Gecko) Chrome/123.0.0.0 Safari/537.36 Edg/123.0.0.0" etag="YbZKhzbXzFQhaijUgGUh" version="24.0.8" type="device">
  <diagram id="PWv8wNf4s0MWWvOZavtn" name="Page-1">
    <mxGraphModel dx="2346" dy="1059" grid="1" gridSize="10" guides="1" tooltips="1" connect="1" arrows="1" fold="1" page="1" pageScale="1" pageWidth="827" pageHeight="1169" math="0" shadow="0">
      <root>
        <mxCell id="0" />
        <mxCell id="1" parent="0" />
        <mxCell id="itrpyEkR6iG0rxcYxWMF-4" value="" style="edgeStyle=orthogonalEdgeStyle;rounded=0;orthogonalLoop=1;jettySize=auto;html=1;fontSize=23;" parent="1" source="itrpyEkR6iG0rxcYxWMF-1" target="itrpyEkR6iG0rxcYxWMF-3" edge="1">
          <mxGeometry relative="1" as="geometry" />
        </mxCell>
        <mxCell id="itrpyEkR6iG0rxcYxWMF-1" value="Start" style="strokeWidth=2;html=1;shape=mxgraph.flowchart.start_2;whiteSpace=wrap;fontSize=23;fontStyle=1" parent="1" vertex="1">
          <mxGeometry x="-375" y="320" width="110" height="80" as="geometry" />
        </mxCell>
        <mxCell id="itrpyEkR6iG0rxcYxWMF-7" value="&lt;font style=&quot;font-size: 17px;&quot;&gt;True&lt;/font&gt;" style="rounded=0;orthogonalLoop=1;jettySize=auto;html=1;exitX=0.5;exitY=1;exitDx=0;exitDy=0;exitPerimeter=0;entryX=0.5;entryY=0;entryDx=0;entryDy=0;fontSize=17;" parent="1" source="itrpyEkR6iG0rxcYxWMF-3" target="itrpyEkR6iG0rxcYxWMF-6" edge="1">
          <mxGeometry x="-0.5" relative="1" as="geometry">
            <mxPoint as="offset" />
          </mxGeometry>
        </mxCell>
        <mxCell id="itrpyEkR6iG0rxcYxWMF-3" value="n == 2" style="strokeWidth=2;html=1;shape=mxgraph.flowchart.decision;whiteSpace=wrap;fontSize=23;fontStyle=1" parent="1" vertex="1">
          <mxGeometry x="-400" y="440" width="160" height="80" as="geometry" />
        </mxCell>
        <mxCell id="itrpyEkR6iG0rxcYxWMF-6" value="return 1" style="rounded=1;whiteSpace=wrap;html=1;absoluteArcSize=1;arcSize=14;strokeWidth=2;fontStyle=1;fontSize=23;" parent="1" vertex="1">
          <mxGeometry x="-400" y="600" width="160" height="80" as="geometry" />
        </mxCell>
        <mxCell id="itrpyEkR6iG0rxcYxWMF-16" style="rounded=0;orthogonalLoop=1;jettySize=auto;html=1;exitX=1;exitY=0.5;exitDx=0;exitDy=0;exitPerimeter=0;fontSize=23;" parent="1" source="itrpyEkR6iG0rxcYxWMF-9" edge="1">
          <mxGeometry relative="1" as="geometry">
            <mxPoint x="80" y="480" as="targetPoint" />
          </mxGeometry>
        </mxCell>
        <mxCell id="itrpyEkR6iG0rxcYxWMF-17" value="False" style="edgeLabel;html=1;align=center;verticalAlign=middle;resizable=0;points=[];fontSize=17;" parent="itrpyEkR6iG0rxcYxWMF-16" vertex="1" connectable="0">
          <mxGeometry x="-0.0132" y="-1" relative="1" as="geometry">
            <mxPoint x="-10" y="-2" as="offset" />
          </mxGeometry>
        </mxCell>
        <mxCell id="itrpyEkR6iG0rxcYxWMF-9" value="n &amp;lt;= 1" style="strokeWidth=2;html=1;shape=mxgraph.flowchart.decision;whiteSpace=wrap;fontSize=23;fontStyle=1" parent="1" vertex="1">
          <mxGeometry x="-160" y="438.53" width="160" height="80" as="geometry" />
        </mxCell>
        <mxCell id="itrpyEkR6iG0rxcYxWMF-10" style="rounded=0;orthogonalLoop=1;jettySize=auto;html=1;exitX=1;exitY=0.5;exitDx=0;exitDy=0;exitPerimeter=0;entryX=0;entryY=0.5;entryDx=0;entryDy=0;entryPerimeter=0;fontSize=23;" parent="1" source="itrpyEkR6iG0rxcYxWMF-3" target="itrpyEkR6iG0rxcYxWMF-9" edge="1">
          <mxGeometry relative="1" as="geometry" />
        </mxCell>
        <mxCell id="itrpyEkR6iG0rxcYxWMF-11" value="False" style="edgeLabel;html=1;align=center;verticalAlign=middle;resizable=0;points=[];fontSize=17;" parent="itrpyEkR6iG0rxcYxWMF-10" vertex="1" connectable="0">
          <mxGeometry x="0.005" y="-2" relative="1" as="geometry">
            <mxPoint x="-10" y="-3" as="offset" />
          </mxGeometry>
        </mxCell>
        <mxCell id="itrpyEkR6iG0rxcYxWMF-12" style="rounded=0;orthogonalLoop=1;jettySize=auto;html=1;exitX=0.5;exitY=1;exitDx=0;exitDy=0;exitPerimeter=0;fontSize=23;jumpStyle=gap;jumpSize=13;entryX=0.5;entryY=0;entryDx=0;entryDy=0;" parent="1" source="itrpyEkR6iG0rxcYxWMF-9" target="0RgqS54c7RXdNluwD35M-30" edge="1">
          <mxGeometry relative="1" as="geometry">
            <mxPoint x="250" y="360" as="sourcePoint" />
            <mxPoint x="-100" y="670" as="targetPoint" />
          </mxGeometry>
        </mxCell>
        <mxCell id="itrpyEkR6iG0rxcYxWMF-13" value="True" style="edgeLabel;html=1;align=center;verticalAlign=middle;resizable=0;points=[];fontSize=17;" parent="itrpyEkR6iG0rxcYxWMF-12" vertex="1" connectable="0">
          <mxGeometry x="-0.1543" y="-4" relative="1" as="geometry">
            <mxPoint x="4" y="-76" as="offset" />
          </mxGeometry>
        </mxCell>
        <mxCell id="itrpyEkR6iG0rxcYxWMF-29" value="" style="edgeStyle=orthogonalEdgeStyle;rounded=0;orthogonalLoop=1;jettySize=auto;html=1;fontSize=23;" parent="1" source="itrpyEkR6iG0rxcYxWMF-25" target="itrpyEkR6iG0rxcYxWMF-28" edge="1">
          <mxGeometry relative="1" as="geometry" />
        </mxCell>
        <mxCell id="itrpyEkR6iG0rxcYxWMF-25" value="i = 0" style="rounded=1;whiteSpace=wrap;html=1;absoluteArcSize=1;arcSize=14;strokeWidth=2;fontStyle=1;fontSize=23;align=center;spacingLeft=0;" parent="1" vertex="1">
          <mxGeometry x="80" y="440" width="110" height="80" as="geometry" />
        </mxCell>
        <mxCell id="itrpyEkR6iG0rxcYxWMF-28" value="i &amp;lt; k" style="strokeWidth=2;html=1;shape=mxgraph.flowchart.decision;whiteSpace=wrap;fontSize=23;fontStyle=1" parent="1" vertex="1">
          <mxGeometry x="240" y="440" width="160" height="80" as="geometry" />
        </mxCell>
        <mxCell id="itrpyEkR6iG0rxcYxWMF-34" style="rounded=0;orthogonalLoop=1;jettySize=auto;html=1;exitX=0.5;exitY=1;exitDx=0;exitDy=0;exitPerimeter=0;entryX=1;entryY=0.5;entryDx=0;entryDy=0;fontSize=23;edgeStyle=orthogonalEdgeStyle;" parent="1" source="itrpyEkR6iG0rxcYxWMF-28" target="itrpyEkR6iG0rxcYxWMF-6" edge="1">
          <mxGeometry relative="1" as="geometry">
            <mxPoint x="1240" y="520" as="sourcePoint" />
            <mxPoint x="320" y="590" as="targetPoint" />
          </mxGeometry>
        </mxCell>
        <mxCell id="itrpyEkR6iG0rxcYxWMF-35" value="False" style="edgeLabel;html=1;align=center;verticalAlign=middle;resizable=0;points=[];fontSize=17;" parent="itrpyEkR6iG0rxcYxWMF-34" vertex="1" connectable="0">
          <mxGeometry x="0.011" y="-2" relative="1" as="geometry">
            <mxPoint x="224" y="-98" as="offset" />
          </mxGeometry>
        </mxCell>
        <mxCell id="0RgqS54c7RXdNluwD35M-29" value="" style="edgeStyle=orthogonalEdgeStyle;rounded=0;orthogonalLoop=1;jettySize=auto;html=1;" edge="1" parent="1" source="itrpyEkR6iG0rxcYxWMF-37" target="0RgqS54c7RXdNluwD35M-28">
          <mxGeometry relative="1" as="geometry" />
        </mxCell>
        <mxCell id="itrpyEkR6iG0rxcYxWMF-37" value="a = random(1, n - 1)" style="rounded=1;whiteSpace=wrap;html=1;absoluteArcSize=1;arcSize=14;strokeWidth=2;fontStyle=1;fontSize=23;align=center;spacingLeft=0;" parent="1" vertex="1">
          <mxGeometry x="370" y="600" width="220" height="80" as="geometry" />
        </mxCell>
        <mxCell id="itrpyEkR6iG0rxcYxWMF-38" style="rounded=0;orthogonalLoop=1;jettySize=auto;html=1;exitX=1;exitY=0.5;exitDx=0;exitDy=0;exitPerimeter=0;entryX=0.5;entryY=0;entryDx=0;entryDy=0;fontSize=23;edgeStyle=orthogonalEdgeStyle;" parent="1" source="itrpyEkR6iG0rxcYxWMF-28" target="itrpyEkR6iG0rxcYxWMF-37" edge="1">
          <mxGeometry relative="1" as="geometry">
            <mxPoint x="1240" y="520" as="sourcePoint" />
            <mxPoint x="1360" y="600" as="targetPoint" />
          </mxGeometry>
        </mxCell>
        <mxCell id="itrpyEkR6iG0rxcYxWMF-39" value="True" style="edgeLabel;html=1;align=center;verticalAlign=middle;resizable=0;points=[];fontSize=17;" parent="itrpyEkR6iG0rxcYxWMF-38" vertex="1" connectable="0">
          <mxGeometry x="-0.017" y="-1" relative="1" as="geometry">
            <mxPoint x="-49" y="-19" as="offset" />
          </mxGeometry>
        </mxCell>
        <mxCell id="itrpyEkR6iG0rxcYxWMF-46" value="i = i + 1" style="rounded=1;whiteSpace=wrap;html=1;absoluteArcSize=1;arcSize=14;strokeWidth=2;fontStyle=1;fontSize=23;align=center;spacingLeft=0;" parent="1" vertex="1">
          <mxGeometry x="257.25" y="320" width="125.5" height="80" as="geometry" />
        </mxCell>
        <mxCell id="itrpyEkR6iG0rxcYxWMF-79" value="End" style="strokeWidth=2;html=1;shape=mxgraph.flowchart.start_2;whiteSpace=wrap;fontSize=23;fontStyle=1" parent="1" vertex="1">
          <mxGeometry x="-375" y="750" width="110" height="80" as="geometry" />
        </mxCell>
        <mxCell id="itrpyEkR6iG0rxcYxWMF-84" style="edgeStyle=orthogonalEdgeStyle;rounded=0;orthogonalLoop=1;jettySize=auto;html=1;exitX=0.5;exitY=1;exitDx=0;exitDy=0;entryX=0.5;entryY=0;entryDx=0;entryDy=0;entryPerimeter=0;fontSize=23;" parent="1" source="itrpyEkR6iG0rxcYxWMF-6" target="itrpyEkR6iG0rxcYxWMF-79" edge="1">
          <mxGeometry relative="1" as="geometry" />
        </mxCell>
        <mxCell id="0RgqS54c7RXdNluwD35M-2" style="edgeStyle=orthogonalEdgeStyle;rounded=0;orthogonalLoop=1;jettySize=auto;html=1;entryX=1;entryY=0.5;entryDx=0;entryDy=0;fontSize=23;exitX=1;exitY=0.5;exitDx=0;exitDy=0;exitPerimeter=0;" edge="1" parent="1" source="0RgqS54c7RXdNluwD35M-28" target="itrpyEkR6iG0rxcYxWMF-46">
          <mxGeometry relative="1" as="geometry">
            <mxPoint x="718.4999999999995" y="1000" as="sourcePoint" />
            <Array as="points">
              <mxPoint x="680" y="790" />
              <mxPoint x="680" y="360" />
            </Array>
          </mxGeometry>
        </mxCell>
        <mxCell id="xwOcjUJLy-N-zavRhSwi-10" style="edgeStyle=orthogonalEdgeStyle;rounded=0;orthogonalLoop=1;jettySize=auto;html=1;entryX=0.5;entryY=0;entryDx=0;entryDy=0;entryPerimeter=0;fontSize=23;exitX=0.5;exitY=1;exitDx=0;exitDy=0;" parent="1" source="itrpyEkR6iG0rxcYxWMF-46" target="itrpyEkR6iG0rxcYxWMF-28" edge="1">
          <mxGeometry relative="1" as="geometry" />
        </mxCell>
        <mxCell id="0RgqS54c7RXdNluwD35M-31" style="edgeStyle=orthogonalEdgeStyle;rounded=0;orthogonalLoop=1;jettySize=auto;html=1;exitX=0;exitY=0.5;exitDx=0;exitDy=0;exitPerimeter=0;entryX=1;entryY=0.5;entryDx=0;entryDy=0;" edge="1" parent="1" source="0RgqS54c7RXdNluwD35M-28" target="0RgqS54c7RXdNluwD35M-30">
          <mxGeometry relative="1" as="geometry" />
        </mxCell>
        <mxCell id="0RgqS54c7RXdNluwD35M-28" value="WITNESS(a, n) == 0" style="strokeWidth=2;html=1;shape=mxgraph.flowchart.decision;whiteSpace=wrap;fontSize=23;fontStyle=1" vertex="1" parent="1">
          <mxGeometry x="350" y="719.63" width="260" height="140.75" as="geometry" />
        </mxCell>
        <mxCell id="0RgqS54c7RXdNluwD35M-30" value="return 0" style="rounded=1;whiteSpace=wrap;html=1;absoluteArcSize=1;arcSize=14;strokeWidth=2;fontStyle=1;fontSize=23;" vertex="1" parent="1">
          <mxGeometry x="-160" y="750" width="160" height="80" as="geometry" />
        </mxCell>
        <mxCell id="0RgqS54c7RXdNluwD35M-32" style="edgeStyle=orthogonalEdgeStyle;rounded=0;orthogonalLoop=1;jettySize=auto;html=1;entryX=1;entryY=0.5;entryDx=0;entryDy=0;entryPerimeter=0;" edge="1" parent="1" source="0RgqS54c7RXdNluwD35M-30" target="itrpyEkR6iG0rxcYxWMF-79">
          <mxGeometry relative="1" as="geometry" />
        </mxCell>
        <mxCell id="0RgqS54c7RXdNluwD35M-33" value="True" style="edgeLabel;html=1;align=center;verticalAlign=middle;resizable=0;points=[];fontSize=17;" vertex="1" connectable="0" parent="1">
          <mxGeometry x="320.00027632717627" y="788.9989652415296" as="geometry" />
        </mxCell>
        <mxCell id="0RgqS54c7RXdNluwD35M-34" value="False" style="edgeLabel;html=1;align=center;verticalAlign=middle;resizable=0;points=[];fontSize=17;" vertex="1" connectable="0" parent="1">
          <mxGeometry x="640.0006954430796" y="788.0035701706054" as="geometry" />
        </mxCell>
      </root>
    </mxGraphModel>
  </diagram>
</mxfile>
